ply
format ascii 1.0
comment Created by Blender 3.5.1 - www.blender.org
element vertex 43
property float x
property float y
property float z
property float nx
property float ny
property float nz
property float s
property float t
element face 31
property list uchar uint vertex_indices
end_header
-43.472961 48.031940 10.592780 0.691111 -0.717330 0.088335 0.000000 1.000000
50.835297 46.276318 10.592781 -0.018573 -0.997686 0.065403 1.000000 1.000000
50.835297 46.276318 78.696632 -0.018613 -0.999827 0.000000 1.000000 1.000000
-43.472961 48.031940 78.696632 0.693823 -0.720145 0.000000 0.000000 1.000000
-34.647636 -46.473289 0.010000 0.065392 -0.001217 0.997859 0.112195 0.000000
49.079674 -48.031940 0.010000 0.000000 0.000000 1.000000 1.000000 0.000000
50.638325 35.695370 0.010000 -0.001217 -0.065392 0.997859 1.000000 0.887805
-33.088985 37.254021 0.010000 0.048199 -0.050028 0.997584 0.112195 0.887805
-45.228584 -46.276318 10.592780 0.997686 -0.018573 0.065404 0.000000 0.000000
-44.868046 -46.283028 7.853755 0.965758 -0.017978 0.258820 0.000000 0.000000
-43.119133 47.664692 7.853755 0.655860 -0.680743 0.326246 0.001911 0.998088
-43.811001 -46.302708 5.301390 0.865875 -0.016119 0.500001 0.000000 0.000000
-42.081768 46.587967 5.301390 0.557260 -0.578401 0.595747 0.007516 0.992484
-42.129490 -46.334011 3.109625 0.706985 -0.013161 0.707106 0.000000 0.000000
-40.431561 44.875153 3.109625 0.428903 -0.445174 0.786042 0.016431 0.983569
-39.938110 -46.374805 1.427824 0.499914 -0.009306 0.866025 0.056098 0.000000
-38.280975 42.642979 1.427824 0.293928 -0.305079 0.905833 0.056098 0.943902
-37.386185 -46.422310 0.370600 0.258774 -0.004817 0.965926 0.083157 0.000000
-35.776554 40.043549 0.370600 0.161524 -0.167652 0.972524 0.083157 0.916843
50.828587 45.915779 7.853756 -0.017978 -0.965758 0.258820 1.000000 1.000000
50.808907 44.858734 5.301391 -0.016119 -0.865875 0.500001 1.000000 1.000000
50.777603 43.177223 3.109625 -0.013161 -0.706985 0.707106 1.000000 1.000000
50.736809 40.985844 1.427824 -0.009306 -0.499914 0.866025 1.000000 0.943902
50.689304 38.433918 0.370600 -0.004817 -0.258774 0.965926 1.000000 0.916843
-45.228584 -46.276318 78.696632 0.999827 -0.018613 0.000000 0.000000 0.000000
105.628174 34.671692 0.010000 -0.001217 -0.065392 0.997859 1.000000 0.887805
105.679153 37.410240 0.370600 -0.004817 -0.258774 0.965926 1.000000 0.916843
105.818436 44.892101 7.853756 -0.017978 -0.965758 0.258820 1.000000 1.000000
105.825134 45.252640 10.592781 -0.018573 -0.997686 0.065403 1.000000 1.000000
105.726654 39.962166 1.427824 -0.009306 -0.499914 0.866025 1.000000 0.943902
105.767456 42.153545 3.109625 -0.013161 -0.706985 0.707106 1.000000 1.000000
104.069519 -49.055618 0.010000 0.000000 0.000000 1.000000 1.000000 0.000000
105.798752 43.835056 5.301391 -0.016119 -0.865875 0.500001 1.000000 1.000000
105.825134 45.252640 78.696632 -0.018613 -0.999827 0.000000 1.000000 1.000000
144.555603 36.686523 0.370600 -0.004817 -0.258774 0.965926 1.000000 0.916843
144.603119 39.238449 1.427824 -0.009306 -0.499914 0.866025 1.000000 0.943902
144.643906 41.429829 3.109625 -0.013161 -0.706985 0.707106 1.000000 1.000000
144.675217 43.111340 5.301391 -0.016119 -0.865875 0.500001 1.000000 1.000000
144.694885 44.168385 7.853756 -0.017978 -0.965758 0.258820 1.000000 1.000000
144.701599 44.528923 10.592781 -0.018573 -0.997686 0.065403 1.000000 1.000000
144.701599 44.528923 78.696632 -0.018613 -0.999827 0.000000 1.000000 1.000000
144.504623 33.947975 0.010000 -0.001217 -0.065392 0.997859 1.000000 0.887805
142.945984 -49.779335 0.010000 0.000000 0.000000 1.000000 1.000000 0.000000
4 0 1 2 3
4 4 5 6 7
4 0 8 9 10
4 10 9 11 12
4 12 11 13 14
4 14 13 15 16
4 16 15 17 18
4 18 17 4 7
4 1 0 10 19
4 19 10 12 20
4 20 12 14 21
4 21 14 16 22
4 22 16 18 23
4 23 18 7 6
4 8 0 3 24
4 23 6 25 26
4 1 19 27 28
4 22 23 26 29
4 21 22 29 30
4 6 5 31 25
4 20 21 30 32
4 19 20 32 27
4 2 1 28 33
4 29 26 34 35
4 32 30 36 37
4 28 27 38 39
4 33 28 39 40
4 26 25 41 34
4 30 29 35 36
4 27 32 37 38
4 25 31 42 41
